<?xml version="1.0" encoding="UTF-8"?>
<svg version="1.1" xmlns="http://www.w3.org/2000/svg" width="4096" height="4096">
<path d="M0 0 C1.42424881 -0.00492663 2.84849139 -0.01204158 4.27271983 -0.02111396 C8.15754397 -0.03960789 12.04173251 -0.02735495 15.92653768 -0.00972402 C20.16380086 0.00393783 24.40097821 -0.01158033 28.63823348 -0.02327484 C36.05497888 -0.03975267 43.47153832 -0.03774708 50.88828564 -0.02344799 C61.91721547 -0.00224316 72.94599755 -0.00973158 83.97493333 -0.02282321 C103.67383565 -0.04526248 123.37265208 -0.03929464 143.07155447 -0.02138711 C160.30859506 -0.00581474 177.54560555 0.00003169 194.78265285 -0.00372791 C195.92638905 -0.00396471 197.07012525 -0.00420151 198.24852011 -0.00444549 C202.89138094 -0.00542042 207.53424175 -0.00644124 212.17710254 -0.00753059 C255.7199973 -0.01761108 299.26283918 0.00064457 342.80572151 0.03218976 C381.48997253 0.06005552 420.17416069 0.06501118 458.85841846 0.04999638 C468.76614949 0.04617393 478.67388051 0.04237913 488.58161163 0.03882599 C490.4112594 0.03816927 490.4112594 0.03816927 492.27786975 0.03749928 C524.60624054 0.02626036 556.93460671 0.0336076 589.26297599 0.04670674 C592.74134907 0.0480953 596.21972215 0.04947601 599.69809524 0.05084516 C602.00553555 0.05175454 604.31297586 0.05267721 606.62041617 0.05361326 C623.84859267 0.06040925 641.07675102 0.05774875 658.30492687 0.05066586 C677.8917555 0.04270119 697.47852086 0.04925917 717.06533559 0.0748409 C728.02743976 0.08876774 738.98941654 0.09174378 749.95152278 0.07890619 C757.27335317 0.07144633 764.59507627 0.07853305 771.91688575 0.0974643 C776.08873703 0.10784999 780.26033189 0.11197783 784.43218013 0.09848576 C788.23159522 0.08633415 792.03052059 0.0927564 795.82989356 0.11364586 C797.83128556 0.11996797 799.83271064 0.10681744 801.83406314 0.09274295 C816.45712362 0.21700917 827.22338664 5.03190444 837.95973682 14.81391239 C848.34894504 25.81714 851.75525238 39.21390117 851.64976025 53.9786253 C851.65630073 55.60095129 851.65630073 55.60095129 851.66297334 57.25605154 C851.67388094 60.86332834 851.66352818 64.470219 851.65318775 68.07749271 C851.65664613 70.69681918 851.6614119 73.31614419 851.66736948 75.93546617 C851.67817491 81.62203832 851.67789416 87.30852494 851.670228 92.99510098 C851.65885821 101.45211771 851.66469365 109.9090626 851.67385293 118.36607889 C851.68963878 133.47619461 851.68828481 148.58627225 851.67961619 163.69639158 C851.67206268 176.92842383 851.67010255 190.16044213 851.67368412 203.39247608 C851.67402785 204.71023325 851.67402785 204.71023325 851.67437853 206.05461178 C851.6753126 209.62110922 851.67626781 213.18760666 851.67725782 216.75410409 C851.68643409 250.21079046 851.67811764 283.66745263 851.66196713 317.12413527 C851.64774784 346.80557137 851.64898967 376.48696883 851.66335011 406.16840458 C851.67944383 439.54366345 851.68576587 472.91890089 851.67651331 506.29416311 C851.67555124 509.85841806 851.67461271 513.42267302 851.67368412 516.98692799 C851.67332827 518.30326177 851.67332827 518.30326177 851.67296524 519.64618815 C851.66956338 532.85560173 851.67352425 546.06499977 851.68112278 559.2744112 C851.68973241 574.31618791 851.68748944 589.35792067 851.67128055 604.39969195 C851.66252353 612.80155336 851.6618207 621.20331943 851.67321907 629.6051782 C851.68001307 635.23839057 851.67564082 640.87152753 851.66270476 646.50472885 C851.65566063 649.70068354 851.65463714 652.89641734 851.66392271 656.09237154 C851.85206813 726.3014366 828.56193322 791.68440193 782.27223682 844.62641239 C781.40856495 845.61512333 780.54489307 846.60383427 779.65504932 847.62250614 C768.34790859 860.25496456 755.86754537 871.51185236 742.27223682 881.62641239 C741.66283253 882.08692997 741.05342823 882.54744755 740.42555714 883.0219202 C722.48848177 896.50476047 702.56906206 906.95426969 682.81789112 917.49482059 C675.7032933 921.29546139 668.65574067 925.19624728 661.64723682 929.18891239 C652.91078582 934.16589603 644.10179397 938.9895196 635.24782276 943.7538538 C628.4151263 947.44023409 621.64308751 951.22119193 614.89723682 955.06391239 C605.54352408 960.38940156 596.09719544 965.52485373 586.61037159 970.60883427 C578.29348513 975.06770444 570.0294374 979.6114721 561.79323292 984.2172327 C556.58130934 987.13057988 551.36488149 990.03582618 546.14723682 992.93891239 C545.56966633 993.26028172 544.99209583 993.58165104 544.3970232 993.91275883 C536.38328066 998.36936317 528.3427219 1002.77336802 520.27223682 1007.12641239 C509.54937177 1012.91056728 498.89679616 1018.81600258 488.25270557 1024.74359989 C478.11329692 1030.3888073 467.94736271 1035.98590851 457.7836504 1041.5871973 C452.84773081 1044.30788065 447.91480153 1047.03394977 442.98312855 1049.76232243 C439.94011132 1051.44524557 436.89543408 1053.12500804 433.84669971 1054.79755497 C432.65777593 1055.4500694 431.4688922 1056.10265681 430.28004932 1056.75531864 C429.69789158 1057.07487019 429.11573383 1057.39442173 428.51593494 1057.72365665 C424.4292212 1059.97321701 420.37540048 1062.27398331 416.32692432 1064.59125614 C415.2309795 1065.20911991 414.13503468 1065.82698368 413.0058794 1066.46357059 C410.94703413 1067.62431614 408.89674752 1068.8004249 406.85695362 1069.99433231 C400.15288849 1073.73865231 400.15288849 1073.73865231 396.08473682 1073.22016239 C394.69254932 1072.43125614 394.69254932 1072.43125614 393.27223682 1071.62641239 C392.11594776 1071.02570927 390.9596587 1070.42500614 389.76833057 1069.80609989 C388.41273701 1069.04269652 387.06008091 1068.27406333 385.70973682 1067.50141239 C384.10076449 1066.59444769 382.4913583 1065.68825239 380.88161182 1064.78266239 C379.99280323 1064.28121708 379.10399464 1063.77977177 378.18825245 1063.26313114 C373.24123792 1060.48644114 368.2705614 1057.75258988 363.30141163 1055.01578617 C360.17650906 1053.29462496 357.05255015 1051.57175253 353.92848682 1049.84906864 C353.29682606 1049.50082539 352.66516529 1049.15258213 352.01436329 1048.79378605 C347.60904526 1046.36474867 343.20583485 1043.93192134 338.80348682 1041.49750614 C336.3557261 1040.14435924 333.90779967 1038.79151262 331.45973682 1037.43891239 C330.5549509 1036.93897266 330.5549509 1036.93897266 329.63188648 1036.42893314 C321.41058289 1031.88818901 313.16481845 1027.39495291 304.89723682 1022.93891239 C297.21869126 1018.80031507 289.60072786 1014.57035855 282.02223682 1010.25141239 C273.40650304 1005.34308214 264.70942586 1000.60254364 255.95973682 995.93891239 C246.16710598 990.71868876 236.42034062 985.43036367 226.7390337 980.0062952 C221.65189484 977.16063914 216.55515818 974.33220203 211.45973682 971.50141239 C209.74778126 970.55032597 209.74778126 970.55032597 208.00124073 969.58002567 C199.53435358 964.87760936 191.06293514 960.18340671 182.58473682 955.50141239 C181.97800129 955.16634678 181.37126575 954.83128117 180.74614429 954.48606205 C172.48636555 949.92706023 164.20198257 945.41556711 155.89723682 940.93891239 C147.17258462 936.23541289 138.52973696 931.40270648 129.91530323 926.50067997 C123.08032079 922.62138137 116.19197322 918.85212294 109.27223682 915.12641239 C105.27021482 912.96346423 101.27055475 910.79619937 97.27223682 908.62641239 C96.29190479 908.09547977 95.31157276 907.56454716 94.3015337 907.01752567 C71.98951841 894.8758615 51.97534077 880.81657348 33.27223682 863.62641239 C32.05742772 862.52871779 30.84258142 861.43106437 29.62770557 860.33344364 C23.04144298 854.33788467 16.85064211 848.36024401 11.36598682 841.31000614 C9.15390458 838.47474401 6.81516868 835.78085832 4.45973682 833.06391239 C-1.94676328 825.37611227 -7.37964282 817.07329127 -12.72776318 808.62641239 C-13.16620556 807.93418583 -13.60464794 807.24195927 -14.05637646 806.52875614 C-32.70676565 776.73405975 -44.73683488 743.58580404 -50.97776318 709.06391239 C-51.20459789 707.82810429 -51.20459789 707.82810429 -51.43601513 706.56733036 C-54.64500624 687.49458026 -55.02037837 668.31382124 -54.98845959 649.02370548 C-54.99148655 646.4015542 -54.99529909 643.77941446 -55.00005215 641.1572668 C-55.00874018 635.49593311 -55.01015297 629.83463561 -55.00654888 624.17329693 C-55.00120382 615.75475832 -55.00737476 607.33625427 -55.01563181 598.91771941 C-55.0308108 583.00682844 -55.03258352 567.09595348 -55.03010879 551.18505678 C-55.02827188 538.90211139 -55.03004404 526.61917121 -55.03433323 514.33622646 C-55.03493564 512.56789623 -55.03553684 510.79956599 -55.03613683 509.03123575 C-55.03704413 506.36623925 -55.0379528 503.70124275 -55.03886918 501.03624626 C-55.04728835 476.28769784 -55.05164121 451.53915138 -55.04746246 426.79060173 C-55.04730609 425.85918094 -55.04714971 424.92776015 -55.0469886 423.96811448 C-55.04618288 419.24786456 -55.0453371 414.52761465 -55.04447529 409.80736474 C-55.04430421 408.86998858 -55.04413312 407.93261242 -55.04395685 406.96683092 C-55.04361019 405.0712382 -55.04326166 403.17564549 -55.04291126 401.28005277 C-55.03754809 371.7515326 -55.04550562 342.22304224 -55.06394482 312.69452763 C-55.08465889 279.48451423 -55.09538931 246.2745193 -55.09136933 213.06449908 C-55.090974 209.52454102 -55.09061245 205.98458296 -55.09027195 202.4446249 C-55.09018122 201.57305531 -55.09009049 200.70148571 -55.08999701 199.80350492 C-55.08883141 186.65100431 -55.0954759 173.49852237 -55.10608387 160.34602642 C-55.11812851 145.39739055 -55.11970266 130.44879584 -55.1072937 115.50015936 C-55.10066225 107.13730383 -55.10230298 98.77454673 -55.11588222 90.41169906 C-55.12509145 84.16772635 -55.11861763 77.92386227 -55.10603442 71.67989751 C-55.10337615 69.15413122 -55.10578927 66.62835348 -55.11377028 64.10259841 C-55.1238657 60.66964711 -55.11546281 57.23721188 -55.10249329 53.80428123 C-55.1134573 52.33373393 -55.1134573 52.33373393 -55.12464282 50.8334786 C-55.01199864 36.44791024 -49.94189932 24.24796803 -40.02854443 13.88031864 C-28.71810932 2.80031685 -15.4972169 -0.14473806 0 0 Z M16.43239307 116.03266239 C2.83288518 132.36190876 -2.21371428 150.54084925 -0.72776318 171.62641239 C1.44693358 188.63538082 9.50396589 201.66493104 21.27223682 213.62641239 C22.40935017 214.92843178 23.53595703 216.23977552 24.64723682 217.56391239 C29.83884034 223.57188599 35.62321295 229.05384147 41.27223682 234.62641239 C44.24875521 230.96954695 46.3526362 226.94329854 48.58473682 222.81391239 C66.73166212 189.7722355 88.09289858 158.47005825 111.97926807 129.31391239 C113.3736035 127.84843073 113.3736035 127.84843073 113.27223682 126.62641239 C98.39780808 127.58605296 87.22233458 134.78673636 77.27223682 145.62641239 C80.93228772 130.18448336 90.39251141 116.11201023 100.95973682 104.43891239 C102.10442432 103.04672489 102.10442432 103.04672489 103.27223682 101.62641239 C102.77723682 100.14141239 102.77723682 100.14141239 102.27223682 98.62641239 C97.85881952 97.7752404 93.44109399 96.94883551 89.02223682 96.12641239 C87.16985401 95.76869755 87.16985401 95.76869755 85.28004932 95.40375614 C59.73744634 90.6985398 34.71864669 96.6512248 16.43239307 116.03266239 Z M707.52223682 96.12641239 C706.2409087 96.36488895 704.95958057 96.60336552 703.63942432 96.84906864 C700.5150973 97.43196547 697.39295569 98.02455032 694.27223682 98.62641239 C694.27223682 102.67289703 696.32487152 104.51043386 698.77223682 107.50141239 C705.73764887 116.31166392 711.4698965 125.5971919 716.27223682 135.75141239 C716.57540821 136.39127079 716.8785796 137.03112919 717.190938 137.69037724 C718.48674059 140.52554004 719.27223682 142.47084711 719.27223682 145.62641239 C718.25129932 144.57453739 718.25129932 144.57453739 717.20973682 143.50141239 C716.23417981 142.53940478 715.25472973 141.58133534 714.27223682 140.62641239 C713.54520557 139.90518192 713.54520557 139.90518192 712.80348682 139.16938114 C705.86956409 132.72831076 695.48822248 126.85663408 685.89723682 126.50141239 C685.03098682 126.54266239 684.16473682 126.58391239 683.27223682 126.62641239 C686.74658841 131.28935793 690.26706922 135.9094226 693.83473682 140.50141239 C703.86177913 153.48494912 713.36143728 166.8536302 722.27223682 180.62641239 C722.7238921 181.32250614 723.17554737 182.01859989 723.64088917 182.73578739 C731.12536764 194.31273866 738.15029007 206.13202551 745.04567432 218.06781864 C746.12050854 219.92108161 747.19602279 221.77395036 748.27223682 223.62641239 C749.10223194 225.06283085 749.10223194 225.06283085 749.94899464 226.52826786 C750.74708546 227.88975956 750.74708546 227.88975956 751.56129932 229.27875614 C752.03519093 230.09207401 752.50908253 230.90539188 752.99733448 231.74335575 C754.14217754 233.76551673 754.14217754 233.76551673 756.27223682 234.62641239 C756.68618702 234.1388245 757.10013721 233.65123661 757.52663136 233.14887333 C761.22328498 228.85206681 765.05375233 224.79127537 769.12038136 220.84442997 C785.16064181 205.26980464 797.05921913 188.61290897 797.62355518 165.49872684 C797.6935772 156.82105023 797.52362117 148.7810941 794.27223682 140.62641239 C793.93192432 139.65961552 793.59161182 138.69281864 793.24098682 137.69672489 C786.50715276 119.81566551 773.09625711 107.0721686 755.97145557 99.08734989 C739.70355603 92.42432996 724.53382637 92.84129333 707.52223682 96.12641239 Z M240.36208057 128.27094364 C239.8757465 128.75536427 239.38941242 129.23978489 238.88834095 129.73888493 C237.85279089 130.77307015 236.81977759 131.80980059 235.78908253 132.8488245 C234.24710247 134.4012926 232.69505133 135.94308075 231.14137745 137.48383427 C224.74069304 143.87603406 218.90955244 150.54141005 213.27223682 157.62641239 C211.71273498 159.44149269 210.15089871 161.25457565 208.58473682 163.06391239 C164.01867002 216.7222834 135.19628906 291.2710589 135.11110401 361.26899052 C135.10613911 362.27085896 135.1011742 363.27272739 135.09605885 364.30495548 C135.08157012 367.58919841 135.07465364 370.87339287 135.06911182 374.15766239 C135.06628445 375.29435871 135.06345707 376.43105503 135.06054401 377.60219669 C135.04559706 383.63094147 135.03634215 389.65966265 135.03200245 395.68842411 C135.02655823 401.83424685 135.00260346 407.97984351 134.97403049 414.12559605 C134.95514933 418.92026178 134.95018496 423.71487613 134.94866657 428.50957584 C134.94569095 430.77038131 134.9378416 433.03118705 134.92448139 435.29195499 C134.80184419 457.66053866 136.73945947 479.80263962 141.45973682 501.68891239 C141.60641804 502.38823887 141.75309925 503.08756535 141.90422535 503.80808353 C144.82470055 517.68516629 148.66388863 531.20943527 153.27223682 544.62641239 C153.62108936 545.65782352 153.9699419 546.68923466 154.32936573 547.75190067 C154.677896 548.7533411 155.02642628 549.75478153 155.38551807 550.78656864 C155.69916309 551.69157108 156.01280811 552.59657352 156.33595753 553.52900028 C157.08174862 555.79552181 157.08174862 555.79552181 159.27223682 556.62641239 C159.82911182 555.79238895 160.38598682 554.95836552 160.95973682 554.09906864 C165.22936118 547.77979874 169.56290012 541.87657318 174.83864307 536.33344364 C176.48660679 534.74268081 176.48660679 534.74268081 176.27223682 532.62641239 C176.93223682 532.62641239 177.59223682 532.62641239 178.27223682 532.62641239 C178.27223682 531.96641239 178.27223682 531.30641239 178.27223682 530.62641239 C178.8574712 530.36344364 179.44270557 530.10047489 180.04567432 529.82953739 C182.37199363 528.57250871 183.97954174 527.18802222 185.89723682 525.37641239 C190.29777438 521.41592859 195.12060837 518.50836847 200.27223682 515.62641239 C200.60223682 515.95641239 200.93223682 516.28641239 201.27223682 516.62641239 C200.52780323 517.86391239 200.52780323 517.86391239 199.76833057 519.12641239 C187.37143345 540.05021073 173.32050419 569.80572891 176.27223682 594.62641239 C178.58709558 602.56875802 182.96746871 609.40736234 187.39723682 616.31391239 C188.06231251 617.36465946 188.72738819 618.41540653 189.41261768 619.49799442 C193.53243353 625.98273296 197.73205842 632.41056006 202.03395557 638.77582645 C205.30141087 643.61826235 208.34629491 648.57143144 211.27223682 653.62641239 C214.5197968 650.48361242 217.53642043 647.20759863 220.52223682 643.81391239 C232.69119911 630.28394775 247.79102051 619.1617018 265.27223682 613.62641239 C260.03891242 620.72311745 260.03891242 620.72311745 257.40895557 623.82172489 C246.57527818 636.63108293 230.78166101 660.32715989 231.27223682 677.62641239 C232.1355565 684.06501653 234.18303304 688.88955904 237.77223682 694.25141239 C238.21438526 694.93526005 238.6565337 695.6191077 239.11208057 696.32367802 C240.4834751 698.4351594 241.87427714 700.53244303 243.27223682 702.62641239 C243.69633839 703.26417606 244.12043995 703.90193974 244.55739307 704.55902958 C246.20932074 707.04080492 247.86432225 709.52040411 249.52907276 711.99359989 C252.45750602 716.35557962 255.26257913 720.78112577 258.02223682 725.25141239 C262.10783555 731.85472617 266.34621238 738.34898385 270.64723682 744.81391239 C271.24246143 745.71126102 271.83768604 746.60860966 272.45094776 747.53315067 C278.25517006 756.90154235 278.25517006 756.90154235 287.27223682 762.62641239 C295.96687928 763.79740489 303.6977467 760.97425274 311.83473682 758.24359989 C313.23422464 757.78587911 314.63413671 757.32945369 316.03444386 756.87424564 C319.70773972 755.67626783 323.37498909 754.46074512 327.04121876 753.24134159 C330.7149389 752.02293245 334.39418055 750.82144999 338.07301807 749.61859989 C343.01145769 748.0028877 347.94583252 746.37582001 352.87527943 744.73287678 C357.95758051 743.03912888 363.04297053 741.3715095 368.17067432 739.8187952 C369.43065235 739.42882862 369.43065235 739.42882862 370.71608448 739.03098392 C372.17686998 738.58171815 373.64235753 738.14724808 375.11354542 737.73331547 C380.21101584 736.14249251 382.2997215 733.88082494 385.27223682 729.62641239 C386.32608087 726.46488024 386.41791476 724.18219073 386.44923878 720.86078739 C386.46207401 719.67525272 386.47490925 718.48971806 386.48813343 717.26825809 C386.49552036 715.98394901 386.5029073 714.69963993 386.51051807 713.37641239 C386.5145936 712.71990696 386.51866913 712.06340153 386.52286816 711.38700199 C386.54372355 707.90544801 386.55802196 704.42393326 386.56740284 700.94233036 C386.57840707 697.37282094 386.61273725 693.80394532 386.65257454 690.23465824 C386.6789337 687.46854469 386.68711203 684.70257696 386.69068432 681.93634892 C386.69783226 679.98952132 386.72419661 678.04279415 386.75107288 676.09613895 C386.72879926 666.8781541 385.58824419 658.20488616 379.45973682 650.93891239 C373.91057859 645.98009014 366.8915706 642.90561504 360.27223682 639.62641239 C358.890531 638.93539673 357.50902043 638.2439905 356.12770557 637.55219364 C354.75921685 636.86859816 353.39072728 636.1850044 352.02223682 635.50141239 C348.02220827 633.49948514 348.02220827 633.49948514 346.06471729 632.51850224 C344.47405639 631.72685487 342.87562351 630.95086671 341.27614307 630.17719364 C333.88136556 626.43150808 327.93223316 621.43008761 321.78639698 615.94574833 C320.31200822 614.66106647 318.77866624 613.44504624 317.24489307 612.23188114 C313.85708906 609.26254437 311.23795639 606.07472761 308.52223682 602.50141239 C307.80100636 601.5713538 307.80100636 601.5713538 307.06520557 600.62250614 C303.38531657 595.8560761 301.07383357 592.63838797 300.27223682 586.62641239 C309.62155561 586.36593873 318.71659701 587.07403216 327.98591518 588.13565922 C376.86015179 593.64096934 423.4099384 593.52271362 472.26288319 587.872262 C479.95542236 586.99096904 487.51545153 586.3602638 495.27223682 586.62641239 C496.39870167 590.33393192 496.39870167 590.33393192 495.26051807 592.96625614 C482.43426722 612.84843986 464.74632903 625.98416067 443.79176807 636.38422489 C443.06425343 636.74548466 442.33673878 637.10674442 441.58717823 637.47895145 C439.98648287 638.27237776 438.384509 639.06322808 436.78151417 639.85199833 C434.22847404 641.11512747 431.6873396 642.39999702 429.14723682 643.68891239 C428.35406055 644.07587284 427.56088428 644.46283329 426.74367237 644.86151981 C419.30480415 648.67565348 414.48772532 653.84154551 411.27223682 661.62641239 C410.38098805 665.28797736 410.13180763 668.72003646 410.09523487 672.48310184 C410.08239964 673.63812702 410.0695644 674.7931522 410.05634022 675.98317814 C410.04895329 677.22282825 410.04156635 678.46247837 410.03395557 679.73969364 C410.02588383 681.02321217 410.01781208 682.30673069 410.00949574 683.62914371 C409.9945119 686.34331978 409.98465311 689.0574701 409.97707081 691.77167606 C409.96601456 695.23157067 409.93160646 698.69082075 409.89189911 702.1504879 C409.85931888 705.47186271 409.85494566 708.79317149 409.84645557 712.11469364 C409.82894749 713.34827106 409.8114394 714.58184849 409.79340076 715.85280704 C409.81001363 722.46532765 410.00552724 728.27723927 414.27223682 733.62641239 C417.14336125 736.14654326 419.84671839 737.34239778 423.47023487 738.49237919 C425.03048641 738.9938673 425.03048641 738.9938673 426.62225819 739.50548649 C428.31104839 740.03520809 428.31104839 740.03520809 430.03395557 740.57563114 C431.8009959 741.14009701 431.8009959 741.14009701 433.60373402 741.71596622 C436.75049032 742.71964583 439.89922537 743.71656793 443.04915333 744.71021366 C446.15583427 745.6918506 449.259801 746.68198739 452.3640337 747.67133427 C456.04228944 748.84362682 459.72130238 750.0130829 463.40355396 751.17276859 C469.38676503 753.05820809 475.35284506 754.97835202 481.29420948 756.99213505 C482.96976665 757.55212948 482.96976665 757.55212948 484.67917347 758.12343693 C486.75989387 758.82074338 488.83650634 759.5304982 490.90765858 760.25573063 C497.728763 762.52313103 505.86908755 764.81938393 512.65416431 761.44010258 C517.41475235 758.21196507 520.43075953 754.0696794 523.33473682 749.18891239 C524.26972539 747.68295255 525.20599678 746.17778864 526.14333057 744.67328739 C526.64074757 743.86568974 527.13816456 743.05809208 527.65065479 742.22602177 C530.65334772 737.41230988 533.78583155 732.682759 536.89723682 727.93891239 C542.39117661 719.52383138 547.87228203 711.10216561 553.27223682 702.62641239 C553.70439503 701.9546497 554.13655323 701.282887 554.58180714 700.59076786 C555.96429424 698.44006999 557.33777292 696.28383487 558.70973682 694.12641239 C559.13553028 693.46713749 559.56132374 692.80786259 560.00002003 692.12860966 C563.87452804 685.99639076 566.41281073 680.02174644 565.27223682 672.62641239 C559.68212006 653.01843938 548.17437716 634.35003185 535.15504932 618.90375614 C533.27223682 616.62641239 533.27223682 616.62641239 531.27223682 613.62641239 C551.18453444 620.96252204 565.60104013 632.49028341 580.27223682 647.62641239 C581.93656431 649.29541496 583.60263331 650.96268776 585.27223682 652.62641239 C590.44990612 645.36578428 595.35465541 637.95839697 600.14723682 630.43891239 C600.8461504 629.3440955 601.54506397 628.2492786 602.26515675 627.12128544 C618.22395389 603.9358431 618.22395389 603.9358431 619.10036182 576.90375614 C617.64952573 570.76684139 616.00776186 564.68842233 614.27223682 558.62641239 C614.05905811 557.8814954 613.8458794 557.13657841 613.62624073 556.36908817 C609.30001284 541.64834783 603.13103008 527.19482532 594.27223682 514.62641239 C612.25096443 524.1178848 624.91726932 537.22298072 635.67848682 554.42328739 C636.20442432 555.15031864 636.73036182 555.87734989 637.27223682 556.62641239 C637.93223682 556.62641239 638.59223682 556.62641239 639.27223682 556.62641239 C654.10104352 513.74966571 662.4173303 471.14788318 662.44020557 425.73578739 C662.44343981 424.17428403 662.44680525 422.61278093 662.45029163 421.05127811 C662.45621555 417.80092515 662.45813883 414.55059848 662.45753956 411.30024052 C662.4574588 408.03911577 662.46433287 404.77813302 662.47804737 401.51703739 C662.73203703 340.10169302 654.93681058 281.14608728 627.27223682 225.62641239 C626.55100636 224.16751591 626.55100636 224.16751591 625.81520557 222.67914677 C612.76333753 196.45487892 596.78781106 172.48835156 577.27223682 150.62641239 C576.4240337 149.66734989 575.57583057 148.70828739 574.70192432 147.72016239 C571.70898595 144.36174969 568.70354274 141.05771831 565.52223682 137.87641239 C563.27223682 135.62641239 563.27223682 135.62641239 560.89723682 132.68891239 C560.02599578 131.66486907 559.15077609 130.6442014 558.27223682 129.62641239 C557.79399464 129.02570927 557.31575245 128.42500614 556.82301807 127.80609989 C555.03318285 125.8732512 553.65626726 124.76084009 551.27223682 123.62641239 C548.74812296 123.81440771 548.74812296 123.81440771 546.04713917 124.67646122 C544.44585163 125.12355946 544.44585163 125.12355946 542.81221485 125.57968998 C541.6440221 125.92510838 540.47582935 126.27052677 539.27223682 126.62641239 C538.04651966 126.97642307 536.8208025 127.32643375 535.55794239 127.68705082 C531.34311422 128.89521493 527.13980243 130.1412454 522.93629932 131.38813114 C521.35062288 131.85649325 519.76488209 132.32463759 518.17908192 132.7925806 C513.95571862 134.03949785 509.73326692 135.28947522 505.51099491 136.54008198 C501.12977845 137.83718693 496.74770784 139.13140001 492.36574268 140.42597294 C482.80329498 143.25166742 473.24208299 146.0815258 463.68133259 148.91295719 C461.36714884 149.59830414 459.05294234 150.2835742 456.73872852 150.96881962 C445.53580684 154.28611847 434.33293035 157.6035711 423.13210011 160.92792606 C422.09445011 161.23580051 421.05680012 161.54367496 419.98770618 161.86087894 C418.09392561 162.42283968 416.2002303 162.98508786 414.30664539 163.54770756 C412.68274746 164.0295594 411.05767768 164.50748808 409.43120289 164.98056889 C407.47379061 165.56611862 405.5353839 166.2142934 403.60011768 166.86933231 C397.89103594 168.16812642 392.61185813 166.56495613 387.09230518 164.93085575 C385.90376438 164.58158024 384.71522358 164.23230473 383.49066639 163.87244511 C382.19777574 163.48714511 380.90491471 163.10174572 379.61208057 162.71625614 C378.24475794 162.31245377 376.87730784 161.90908282 375.50973988 161.5061121 C371.83698652 160.42257615 368.1660368 159.33304515 364.49539661 158.24237537 C360.66327227 157.10486816 356.82948209 155.97300338 352.99586964 154.84052372 C345.22894454 152.54508616 337.46392395 150.24326305 329.69942188 147.93964481 C325.52302588 146.70061667 321.34621244 145.46300199 317.16920948 144.22602177 C316.5314071 144.03713855 315.89360472 143.84825533 315.23647499 143.65364838 C313.35907703 143.09768004 311.4816726 142.54173356 309.60426807 141.98578739 C302.78065428 139.96498911 295.95721894 137.94360963 289.13527393 135.91718388 C283.18224464 134.14912855 277.22769024 132.38628368 271.27223682 130.62641239 C270.16968555 130.30013859 269.06713428 129.97386478 267.93117237 129.6377039 C264.58219511 128.64786457 261.23207673 127.66198427 257.88161182 126.67719364 C256.84699818 126.37097584 255.81238453 126.06475803 254.74641895 125.7492609 C253.32012165 125.33134029 253.32012165 125.33134029 251.86501026 124.90497684 C250.60403522 124.53370419 250.60403522 124.53370419 249.31758595 124.15493107 C244.7088169 122.9640241 243.6160966 125.02512192 240.36208057 128.27094364 Z M370.65114307 769.92719364 C368.81235419 770.16726906 366.97348 770.40669188 365.13452625 770.64550114 C361.31242029 771.14417758 357.49135646 771.6500308 353.67091846 772.1613245 C348.79533972 772.81332292 343.91768355 773.44793476 339.03914452 774.07735252 C335.25400797 774.56748971 331.47005574 775.06631782 327.68640423 775.56777859 C325.88834936 775.80512882 324.08995754 776.03994188 322.29122066 776.27206707 C306.85197751 777.62242321 306.85197751 777.62242321 293.39723682 784.37641239 C292.86356495 784.82500614 292.32989307 785.27359989 291.78004932 785.73578739 C287.03516385 791.6853329 286.2502699 799.08389418 285.08473682 806.37641239 C284.90749073 807.39734989 284.73024464 808.41828739 284.54762745 809.47016239 C282.3643075 821.53431454 282.3643075 821.53431454 284.95973682 833.12641239 C288.92388172 837.41197444 293.19685524 839.09240819 298.73317432 840.71234989 C299.99774464 841.08343876 301.26231495 841.45452763 302.56520557 841.83686161 C303.92559088 842.2260665 305.28627535 842.61422706 306.64723682 843.00141239 C307.68533497 843.29921604 307.68533497 843.29921604 308.74440479 843.60303593 C328.70944612 849.31530723 348.60390002 853.44025972 369.27223682 855.62641239 C370.51231495 855.75918583 371.75239307 855.89195927 373.03004932 856.02875614 C414.776264 859.56410843 457.16413032 853.87456202 496.95973682 841.06391239 C497.81462696 840.79538456 498.6695171 840.52685673 499.550313 840.25019169 C505.37605334 838.28869658 510.55080451 836.06105247 513.44752979 830.28144169 C514.34462201 827.39337838 514.35805774 825.53651045 514.01051807 822.54828739 C513.90046436 821.5872913 513.79041065 820.6262952 513.67702198 819.63617802 C513.01330418 814.70112794 512.28892765 809.78652276 511.45973682 804.87641239 C511.30698292 803.88770145 511.15422901 802.89899052 510.9968462 801.88031864 C509.66726341 794.00792726 507.30537963 787.07774644 500.75807667 782.01125431 C497.5753667 780.2381915 494.69643071 779.7395807 491.10817432 779.10956669 C490.05564976 778.92345971 490.05564976 778.92345971 488.98186207 778.73359299 C480.8997429 777.33480795 472.77718626 776.22412875 464.64723682 775.14594364 C463.00448654 774.92609911 461.36174586 774.70618277 459.71901417 774.48619938 C456.30422576 774.03016886 452.88897275 773.57781513 449.4734087 773.12763309 C445.14248049 772.55609791 440.81350805 771.97095863 436.48485279 771.38249016 C433.10187362 770.92492531 429.71767376 770.47693355 426.33308887 770.03141689 C424.73818681 769.81994645 423.14372018 769.60515922 421.54976368 769.38667583 C404.20336583 767.01682078 387.94726482 767.60635092 370.65114307 769.92719364 Z " fill="#F98435" transform="translate(1623.7277631759644,1275.3735876083374)"/>
<path d="M0 0 C3.6317528 3.33819311 6.21814145 7.05243446 8.9375 11.125 C12.07790094 15.7763998 15.25684471 20.38654905 18.57421875 24.9140625 C19.46089233 26.12425049 19.46089233 26.12425049 20.36547852 27.35888672 C21.52110049 28.92932679 22.68160404 30.49618866 23.84741211 32.05908203 C24.37471924 32.77692871 24.90202637 33.49477539 25.4453125 34.234375 C25.91469238 34.86569336 26.38407227 35.49701172 26.86767578 36.14746094 C28.10852177 38.17754704 28.7533867 39.62925513 29 42 C28.18310547 43.79589844 28.18310547 43.79589844 26.8671875 45.609375 C26.39023438 46.28226563 25.91328125 46.95515625 25.421875 47.6484375 C24.91140625 48.34195312 24.4009375 49.03546875 23.875 49.75 C22.39357619 51.81145218 20.91986221 53.87369166 19.48339844 55.96679688 C18 58 18 58 16.30566406 59.73632812 C14.44172214 61.87897934 13.60689462 63.20663709 13 66 C14.23205265 71.66566711 16.597371 76.74590553 19 82 C19.67000697 83.53049291 20.33713968 85.06224715 21.00146484 86.59521484 C22.65777697 90.39313087 24.35487393 94.17099136 26.06872559 97.9432373 C27.3905446 100.86253585 28.68215353 103.79502752 29.9765625 106.7265625 C32.56327479 112.52715432 35.2543886 118.27310241 38 124 C38.47115234 124.98613281 38.94230469 125.97226563 39.42773438 126.98828125 C62.23349529 175.97219876 62.23349529 175.97219876 101.8125 211 C118.76738157 216.31917853 135.74048241 212.17252526 151.08081055 204.27319336 C166.1377606 196.22212442 179.82540324 186.22756064 192.265625 174.55078125 C194.47018113 172.49424532 196.70296231 170.51308366 199 168.5625 C202.55938566 165.4742095 205.91095083 162.19741441 209.25 158.875 C209.75789063 158.37170166 210.26578125 157.86840332 210.7890625 157.34985352 C212.2131026 155.91992701 213.60723879 154.46040961 215 153 C215.7940625 152.25621094 216.588125 151.51242187 217.40625 150.74609375 C219.84875703 146.53755834 218.84409122 142.87966078 218.25 138.1875 C217.44596876 129.111115 217.44596876 129.111115 219.41796875 125.15625 C221.4917105 123.13465263 223.57960201 121.58521879 226 120 C227.4324627 118.76813351 228.84976833 117.51838311 230.25 116.25 C230.90871094 115.68667969 231.56742188 115.12335938 232.24609375 114.54296875 C234.15248148 112.91256885 234.15248148 112.91256885 236.3125 110.5625 C238 109 238 109 241 109 C241.48740905 112.97897454 241.91623149 116.95976318 242.29394531 120.95068359 C242.43004178 122.30423066 242.5814628 123.65633457 242.74902344 125.00634766 C244.12111321 136.18970582 244.12111321 136.18970582 241.39550781 140.59082031 C239.37329486 142.6262073 237.32446667 144.32365967 235 146 C234.21109375 146.71671875 233.4221875 147.4334375 232.609375 148.171875 C231.68898438 148.95304687 231.68898438 148.95304687 230.75 149.75 C228.60186623 151.5906558 226.60294168 153.40750722 224.625 155.4375 C223 157 223 157 221 157 C220.89024841 157.54454834 220.78049683 158.08909668 220.66741943 158.65014648 C219.48268174 164.27565819 217.90297193 169.63646884 216.015625 175.0625 C215.7234761 175.91524002 215.43132721 176.76798004 215.13032532 177.64656067 C214.17470654 180.4326061 213.2123772 183.21628271 212.25 186 C211.57756037 187.95645832 210.90561146 189.91308537 210.23413086 191.86987305 C208.84748578 195.90925731 207.45849119 199.94782241 206.06787109 203.98583984 C204.0935224 209.72273339 202.13212717 215.46397675 200.17578125 221.20703125 C199.87182938 222.09929413 199.5678775 222.99155701 199.25471497 223.91085815 C198.65287241 225.67763254 198.05103016 227.44440704 197.44918823 229.21118164 C194.97276179 236.47638866 192.48708238 243.7384351 190 251 C189.7692981 251.67383728 189.53859619 252.34767456 189.30090332 253.04193115 C187.93508392 257.02979892 186.5634668 261.01562304 185.1875 265 C184.86789307 265.93175049 184.54828613 266.86350098 184.21899414 267.82348633 C182.11659904 273.88340096 182.11659904 273.88340096 181 275 C179.07653048 275.09769224 177.14941269 275.1237131 175.22346401 275.12304783 C173.32899364 275.1260344 173.32899364 275.1260344 171.39625114 275.12908131 C169.97644243 275.12622771 168.55663391 275.1232821 167.13682556 275.12025452 C165.64278459 275.12069009 164.14874369 275.12156473 162.6547032 275.12284368 C158.52958317 275.12509143 154.40448885 275.12106356 150.2793721 275.11606562 C145.83831205 275.1117653 141.39725356 275.11320725 136.95619202 275.1139679 C129.25523978 275.1144934 121.55429598 275.11134387 113.85334587 275.10573006 C102.71893085 275.09761859 91.58451993 275.0950002 80.45010228 275.09374207 C62.38722407 275.09155099 44.32435037 275.0848894 26.26147461 275.07543945 C8.71036807 275.06626678 -8.84073725 275.05918524 -26.3918457 275.05493164 C-27.47287538 275.05466892 -28.55390505 275.05440619 -29.66769321 275.05413551 C-35.09065636 275.05283051 -40.51361952 275.0515668 -45.93658268 275.05032361 C-90.95772491 275.03994926 -135.97886222 275.02232943 -181 275 C-181.94918199 272.48367883 -182.89701229 269.96686181 -183.84410095 267.44975281 C-184.10937261 266.74692279 -184.37464427 266.04409278 -184.64795446 265.31996489 C-187.23539612 258.43740125 -189.60732655 251.49223341 -191.94140625 244.51953125 C-192.39079747 243.18424367 -192.84048734 241.84905657 -193.29045105 240.51396179 C-194.23318022 237.71578347 -195.1745648 234.91715847 -196.11486816 232.11816406 C-198.552867 224.86336909 -201.00501906 217.6133494 -203.45703125 210.36328125 C-203.81829416 209.29493483 -203.81829416 209.29493483 -204.18685532 208.20500565 C-208.0648582 196.73899549 -211.9513789 185.27605654 -215.93380737 173.84579468 C-216.47509983 172.29008232 -217.01380487 170.73346713 -217.54983521 169.17593384 C-218.27076797 167.08342299 -219.00089601 164.9943899 -219.734375 162.90625 C-220.12850586 161.77509766 -220.52263672 160.64394531 -220.92871094 159.47851562 C-221.74535018 156.85916545 -221.74535018 156.85916545 -224 156 C-224 155.34 -224 154.68 -224 154 C-224.58007812 153.74863281 -225.16015625 153.49726562 -225.7578125 153.23828125 C-229.09601822 151.39470771 -231.35670882 148.73490866 -233.9609375 145.984375 C-235.77145332 144.22241708 -237.34255169 143.18493457 -239.5 141.9375 C-243.85777487 136.81711453 -242.43458584 130.40739555 -242 124 C-241.94199219 122.75734375 -241.88398437 121.5146875 -241.82421875 120.234375 C-241.32403433 111.4860515 -241.32403433 111.4860515 -239 108 C-238.5875 108.42410156 -238.175 108.84820313 -237.75 109.28515625 C-232.48027167 114.63722408 -227.10977154 120.04571107 -220.73046875 124.0546875 C-218.65891464 125.77952306 -218.05776288 126.54567747 -217.71362305 129.25244141 C-217.84404029 132.01541264 -218.09879327 134.74790487 -218.375 137.5 C-218.73224934 144.32687267 -218.81121296 149.41298541 -214.17724609 154.72998047 C-212.05030119 156.81447652 -209.86800536 158.7901166 -207.56884766 160.68310547 C-205.29746422 162.58971024 -203.29450983 164.730234 -201.25 166.875 C-197.30772237 170.76085863 -193.22173592 174.42200395 -189 178 C-188.12859375 178.76054688 -187.2571875 179.52109375 -186.359375 180.3046875 C-164.89095297 198.73079304 -139.22378745 215.18787714 -110 213 C-93.40053775 210.37274698 -81.04622194 195.3556563 -71.61474609 182.57910156 C-58.8277984 164.78464921 -48.76602421 145.55208422 -39 126 C-38.54560547 125.09910645 -38.09121094 124.19821289 -37.62304688 123.27001953 C-31.75250412 111.58242946 -26.57142052 99.58390313 -21.43429565 87.56027222 C-20.68939829 85.81869289 -19.94115173 84.07854207 -19.18948364 82.33987427 C-18.1313809 79.88638585 -17.08899083 77.42680467 -16.05078125 74.96484375 C-15.72740784 74.22096405 -15.40403442 73.47708435 -15.07086182 72.71066284 C-13.53036866 69.00794101 -12.68723985 66.81328481 -14 63 C-15.27133121 60.91711771 -15.27133121 60.91711771 -16.87109375 58.84765625 C-17.44537109 58.07099609 -18.01964844 57.29433594 -18.61132812 56.49414062 C-19.21396484 55.69169922 -19.81660156 54.88925781 -20.4375 54.0625 C-21.62870748 52.47379594 -22.81507511 50.88144909 -23.99609375 49.28515625 C-24.52388428 48.58269775 -25.0516748 47.88023926 -25.59545898 47.15649414 C-27.1428998 44.78059553 -28.24955294 42.7416007 -29 40 C-28.23999023 38.08154297 -28.23999023 38.08154297 -26.80859375 36.2421875 C-26.28185059 35.54295166 -25.75510742 34.84371582 -25.21240234 34.12329102 C-24.62668457 33.38135498 -24.0409668 32.63941895 -23.4375 31.875 C-22.22791223 30.27927842 -21.02096576 28.6815519 -19.81640625 27.08203125 C-19.18750488 26.25396973 -18.55860352 25.4259082 -17.91064453 24.57275391 C-14.17338439 19.54039416 -10.71877778 14.31190206 -7.22827148 9.10693359 C-6.71723877 8.35105957 -6.20620605 7.59518555 -5.6796875 6.81640625 C-5.23351074 6.15068604 -4.78733398 5.48496582 -4.32763672 4.79907227 C-3.01371129 3.01858008 -1.6047828 1.51922183 0 0 Z " fill="#F98335" transform="translate(2022,984)"/>
<path d="M0 0 C23.43 0 46.86 0 71 0 C73.31 4.95 75.62 9.9 78 15 C79.21608662 17.58198527 80.43417785 20.16302984 81.65625 22.7421875 C90.05568247 40.50045569 98.28914616 58.32614457 106.38371277 76.22529602 C109.37994948 82.84765747 112.40579194 89.45629988 115.4375 96.0625 C115.90454346 97.08037598 116.37158691 98.09825195 116.8527832 99.14697266 C117.90140024 101.43152465 118.9504188 103.71589084 120 106 C124.5033995 97.15379393 128.78504557 88.23822997 132.85324097 79.18289185 C134.4538291 75.62139942 136.06445864 72.06445865 137.67578125 68.5078125 C138.01803238 67.75224564 138.36028351 66.99667877 138.71290588 66.21821594 C143.83175713 54.93893159 149.07134201 43.71492699 154.30175781 32.48706055 C154.68689041 31.65880768 155.07202301 30.83055481 155.46882629 29.97720337 C156.171197 28.46672442 156.87470238 26.956772 157.57987976 25.44760132 C161.49990164 17.01310485 165.22069475 8.50343681 169 0 C192.43 0 215.86 0 240 0 C240 76.56 240 153.12 240 232 C218.55 232 197.1 232 175 232 C174.67 193.72 174.34 155.44 174 116 C165.09 135.8 165.09 135.8 156 156 C147 176 147 176 138 196 C126.45 196 114.9 196 103 196 C97.53595634 185.19926553 92.31456531 174.33328991 87.3125 163.3125 C86.68839438 161.94455041 86.06404496 160.57671203 85.43945312 159.20898438 C78.8919995 144.83604563 72.46081818 130.41259439 66 116 C65.67 154.28 65.34 192.56 65 232 C43.55 232 22.1 232 0 232 C0 155.44 0 78.88 0 0 Z " fill="#414141" transform="translate(1349,2526)"/>
<path d="M0 0 C22.13719089 19.31478407 38.50422075 47.12207245 41.35546875 76.78125 C42.92250981 110.36788399 37.15404952 140.95164404 14.35546875 166.78125 C13.63488281 167.62171875 12.91429687 168.4621875 12.171875 169.328125 C-6.67628424 190.88754458 -33.48972766 206.33612337 -62.43505859 208.65234375 C-77.40679613 209.52583297 -92.03683258 209.33697012 -106.64453125 205.78125 C-107.75441406 205.51441406 -108.86429688 205.24757813 -110.0078125 204.97265625 C-126.34140862 200.48540457 -142.07554431 191.45573102 -154.35546875 179.89453125 C-156.60903272 177.74652474 -156.60903272 177.74652474 -159.1015625 175.9140625 C-162.14565058 173.36095637 -164.53914938 170.47107285 -166.95703125 167.34375 C-167.67379028 166.42057983 -167.67379028 166.42057983 -168.4050293 165.47875977 C-188.81034227 138.77386583 -197.82803337 106.93157003 -193.51953125 73.59375 C-189.01707642 42.82560348 -172.48321832 14.56857698 -147.58032227 -4.203125 C-103.06820395 -36.42639289 -42.27208272 -35.46609008 0 0 Z M-100.64453125 35.78125 C-101.39089844 36.20277344 -102.13726563 36.62429687 -102.90625 37.05859375 C-116.08414532 45.1353683 -123.95872751 58.81592657 -127.64453125 73.59375 C-131.22975072 94.23805297 -128.43386461 115.23287946 -116.64453125 132.78125 C-108.09236152 143.30355307 -97.39769769 149.35395735 -83.9609375 151.3203125 C-69.04536344 152.63324942 -55.38885519 150.36121964 -43.671875 140.62109375 C-37.33578057 134.87099649 -33.46100966 128.41420682 -29.64453125 120.78125 C-29.32355469 120.13929688 -29.00257813 119.49734375 -28.671875 118.8359375 C-21.0152763 102.29152824 -22.20559436 81.37447799 -27.7109375 64.515625 C-33.0187004 50.85207695 -41.76714073 39.92176904 -55.24609375 33.7421875 C-58.69172874 32.36168879 -61.98158552 31.38039354 -65.64453125 30.78125 C-66.44117188 30.6471875 -67.2378125 30.513125 -68.05859375 30.375 C-79.12189307 28.93905555 -90.89181323 30.13101375 -100.64453125 35.78125 Z " fill="#414141" transform="translate(770.64453125,2551.21875)"/>
<path d="M0 0 C54.12 0 108.24 0 164 0 C164 18.48 164 36.96 164 56 C131.33 56 98.66 56 65 56 C65 66.56 65 77.12 65 88 C92.72 88 120.44 88 149 88 C149 105.16 149 122.32 149 140 C121.28 140 93.56 140 65 140 C65 151.88 65 163.76 65 176 C68.05435303 175.99476318 71.10870605 175.98952637 74.25561523 175.98413086 C84.32190067 175.96759691 94.38818669 175.95652956 104.45448208 175.94818783 C110.56056369 175.94295844 116.66663144 175.9358598 122.77270508 175.92456055 C128.66005147 175.91373363 134.54738449 175.90772358 140.43474007 175.90512276 C142.68632277 175.90326815 144.93790469 175.89964687 147.18948174 175.89426994 C150.33133427 175.88706211 153.47313083 175.88600895 156.61499023 175.88647461 C157.55581955 175.88287933 158.49664886 175.87928406 159.46598816 175.87557983 C165.88594784 175.88594784 165.88594784 175.88594784 167 177 C167.0987517 178.68255235 167.12798904 180.36924028 167.12939453 182.0546875 C167.13254669 183.13250488 167.13569885 184.21032227 167.13894653 185.32080078 C167.13591019 187.08012939 167.13591019 187.08012939 167.1328125 188.875 C167.13376923 190.0697998 167.13472595 191.26459961 167.13571167 192.49560547 C167.13639371 195.0276698 167.13453778 197.55973588 167.13037109 200.09179688 C167.12502321 203.9831126 167.13031533 207.87431289 167.13671875 211.765625 C167.13605797 214.21875026 167.13477682 216.67187544 167.1328125 219.125 C167.13483673 220.29788574 167.13686096 221.47077148 167.13894653 222.67919922 C167.13421829 224.29592529 167.13421829 224.29592529 167.12939453 225.9453125 C167.12859894 226.89937988 167.12780334 227.85344727 167.12698364 228.83642578 C167 231 167 231 166 232 C163.86106733 232.09692063 161.71887033 232.12186803 159.57774353 232.12025452 C158.56212341 232.12153854 158.56212341 232.12153854 157.52598572 232.12284851 C155.23336211 232.12451335 152.94081037 232.11896453 150.64819336 232.11352539 C148.98602838 232.11321929 147.32386326 232.11335215 145.66169834 232.11389065 C141.1947961 232.11411719 136.72792043 232.10830503 132.26102448 232.10128021 C128.0754233 232.09560165 123.88982873 232.09531799 119.70422363 232.09460449 C107.44864554 232.08934904 95.19307244 232.075388 82.9375 232.0625 C55.568125 232.041875 28.19875 232.02125 0 232 C0 155.44 0 78.88 0 0 Z " fill="#414141" transform="translate(1934,2526)"/>
<path d="M0 0 C58.74 0 117.48 0 178 0 C178 48.30462005 178 48.30462005 162.75 68.1875 C161.62629386 69.65494162 160.50259618 71.12238972 159.37890625 72.58984375 C158.81703613 73.32315918 158.25516602 74.05647461 157.67626953 74.81201172 C155.01166072 78.29005194 152.34931867 81.76982417 149.6875 85.25 C149.15930664 85.94053467 148.63111328 86.63106934 148.08691406 87.3425293 C143.7178647 93.05655286 139.35814901 98.77766009 135 104.5 C128.53577492 112.9876614 122.06043916 121.46672292 115.57666016 129.93945312 C113.42722084 132.74856861 111.27864357 135.55834283 109.13012695 138.36816406 C108.04930729 139.78163078 106.96841616 141.19504285 105.88745117 142.60839844 C103.10349806 146.24846661 100.32051989 149.88927435 97.5390625 153.53125 C96.96736328 154.27955078 96.39566406 155.02785156 95.80664062 155.79882812 C94.72950106 157.20874252 93.65265114 158.61887827 92.57617188 160.02929688 C88.74557308 165.04236327 84.87381273 170.01938363 81 175 C113.67 175.33 146.34 175.66 180 176 C180 194.48 180 212.96 180 232 C118.95 232 57.9 232 -5 232 C-5 183.71539961 -5 183.71539961 7.4375 168.5625 C8.18902344 167.64597656 8.94054688 166.72945312 9.71484375 165.78515625 C10.46894531 164.86605469 11.22304687 163.94695313 12 163 C13.50028317 161.16689838 15.00028408 159.33356573 16.5 157.5 C19.5 153.83333333 22.5 150.16666667 25.5 146.5 C26.24765625 145.58605469 26.9953125 144.67210938 27.765625 143.73046875 C29.21297051 141.96177205 30.66085301 140.19351457 32.109375 138.42578125 C37.03895524 132.4077353 41.94598389 126.37178841 46.84619141 120.32983398 C50.91241706 115.32258097 55.01416016 110.34564543 59.125 105.375 C63.84921715 99.66051425 68.47460127 93.88204218 73.02563477 88.02905273 C76.87629466 83.10069019 80.9076595 78.346524 85.00390625 73.62109375 C89.48727854 68.20246778 93.71194559 62.57447073 98 57 C65.66 56.67 33.32 56.34 0 56 C0 37.52 0 19.04 0 0 Z " fill="#414141" transform="translate(1725,2526)"/>
<path d="M0 0 C129.95121951 0 129.95121951 0 150 18 C150.80953125 18.71671875 151.6190625 19.4334375 152.453125 20.171875 C162.11417969 29.24022695 169.37772685 40.5776409 174 53 C174.5878125 54.55267578 174.5878125 54.55267578 175.1875 56.13671875 C181.64100991 76.14708106 179.38779073 98.5945544 170.25 117.3125 C160.46367318 136.26550537 145.54207395 151.12214732 125.00390625 158.00390625 C122.34322698 158.75120694 119.70371527 159.42885042 117 160 C116.18112305 160.17418457 115.36224609 160.34836914 114.51855469 160.52783203 C109.71102367 161.17297254 104.97771247 161.12284259 100.1328125 161.09765625 C99.21491943 161.09664917 98.29702637 161.09564209 97.35131836 161.09460449 C93.94253275 161.08939659 90.53376504 161.0754354 87.125 161.0625 C75.678125 161.0315625 75.678125 161.0315625 64 161 C64 184.43 64 207.86 64 232 C42.88 232 21.76 232 0 232 C0 155.44 0 78.88 0 0 Z M64 56 C64 72.17 64 88.34 64 105 C69.445 105.061875 74.89 105.12375 80.5 105.1875 C82.20220703 105.21481201 83.90441406 105.24212402 85.65820312 105.27026367 C87.03254491 105.27903909 88.40689459 105.28668052 89.78125 105.29296875 C90.82104004 105.3159906 90.82104004 105.3159906 91.88183594 105.33947754 C97.61864725 105.3424948 103.3094312 104.30037809 107.8046875 100.45703125 C113.58667593 91.57302713 114.3839296 81.4550368 112.46484375 71.1171875 C111.1623591 66.34852787 109.71973766 62.40975952 106 59 C100.67940419 56.25287857 96.59567569 55.5804892 90.66015625 55.70703125 C89.9791687 55.71005249 89.29818115 55.71307373 88.59655762 55.71618652 C86.08504795 55.7317251 83.57375659 55.77360759 81.0625 55.8125 C75.431875 55.874375 69.80125 55.93625 64 56 Z " fill="#414141" transform="translate(839,2526)"/>
<path d="M0 0 C65.67 0 131.34 0 199 0 C199 18.15 199 36.3 199 55 C198.67 55.33 198.34 55.66 198 56 C176.22 56 154.44 56 132 56 C132 114.08 132 172.16 132 232 C110.55 232 89.1 232 67 232 C67 173.92 67 115.84 67 56 C44.89 56 22.78 56 0 56 C0 37.52 0 19.04 0 0 Z " fill="#414141" transform="translate(1025,2526)"/>
<path d="M0 0 C20 0 20 0 26.125 5.6875 C27.61376953 7.61621094 27.61376953 7.61621094 28.6328125 9.296875 C30.52522846 12.28916998 32.55167627 15.07644552 34.74707031 17.85229492 C36.01047287 19.45075027 37.24608975 21.06750221 38.4765625 22.69140625 C41.07728999 26.11133245 43.71961749 29.49739882 46.375 32.875 C46.83148926 33.45588379 47.28797852 34.03676758 47.75830078 34.63525391 C50.61268086 38.25930964 53.49187721 41.86253899 56.38305664 45.45727539 C61.1530798 51.38877694 65.83599848 57.37417453 70.4375 63.4375 C75.2793136 69.81563738 80.25771931 76.06223421 85.33129883 82.25708008 C89.50418544 87.36135245 93.54313799 92.55247965 97.54296875 97.79296875 C100.1440258 101.19854123 102.78691993 104.57039565 105.4375 107.9375 C106.12416748 108.80979248 106.12416748 108.80979248 106.82470703 109.69970703 C107.75259621 110.8779014 108.68065654 112.05596099 109.60888672 113.23388672 C111.90874245 116.15371058 114.20410522 119.07706142 116.5 122 C117.1815918 122.8672168 117.1815918 122.8672168 117.87695312 123.75195312 C120.15832249 126.65463159 122.43814165 129.55850275 124.71484375 132.46484375 C128.91007382 137.81704079 133.11837452 143.15664526 137.38110352 148.45532227 C142.66777441 155.02758988 147.8531766 161.66593989 152.93310547 168.3996582 C158.48158716 175.72192531 164.25203623 182.81504529 170 190 C170.33 127.3 170.66 64.6 171 0 C178.92 0 186.84 0 195 0 C195 76.56 195 153.12 195 232 C172 232 172 232 166.25 226.875 C165.16679655 225.19396295 164.084471 223.51055783 163.08349609 221.77929688 C161.19445341 218.67714656 158.848591 215.93944259 156.5625 213.125 C155.63394176 211.94227913 154.70816816 210.75736687 153.78515625 209.5703125 C151.03256529 206.03966869 148.26752205 202.51894562 145.5 199 C142.75941048 195.51352308 140.01990362 192.02621834 137.28515625 188.53515625 C132.55387244 182.4986907 127.79781792 176.48376068 123 170.5 C117.74365357 163.94437 112.5405794 157.34861504 107.35888672 150.73388672 C105.07546697 147.82033173 102.78749197 144.91035807 100.5 142 C99.58331177 140.83335027 98.6666451 139.66668361 97.75 138.5 C97.29625 137.9225 96.8425 137.345 96.375 136.75 C92.25 131.5 92.25 131.5 90.87524414 129.75024414 C89.95784991 128.5826959 89.04036933 127.41521551 88.12280273 126.24780273 C85.84155755 123.3451721 83.56178786 120.44140726 81.28515625 117.53515625 C76.55387244 111.4986907 71.79781792 105.48376068 67 99.5 C60.8262081 91.80014689 54.73070714 84.04043427 48.64550781 76.27050781 C42.79599547 68.80385166 36.91377812 61.36561876 30.97094727 53.97290039 C30.49584717 53.38114014 30.02074707 52.78937988 29.53125 52.1796875 C29.11423828 51.66132324 28.69722656 51.14295898 28.26757812 50.60888672 C26.81369808 48.76353434 25.40956494 46.87941993 24 45 C23.67 106.71 23.34 168.42 23 232 C15.41 232 7.82 232 0 232 C0 155.44 0 78.88 0 0 Z " fill="#414141" transform="translate(2993,2526)"/>
<path d="M0 0 C125.94004283 0 125.94004283 0 154 24 C155.010625 24.763125 156.02125 25.52625 157.0625 26.3125 C180.21018079 47.49016541 189.52682081 78.98666653 191.12548828 109.38623047 C192.46087702 142.67700206 184.33755939 174.95760729 161.75 200.1875 C149.65734993 213.16075375 134.15384485 221.99520352 117.375 227.4375 C116.66077881 227.67235107 115.94655762 227.90720215 115.21069336 228.14916992 C81.00755 238.46088889 23.86019135 232 0 232 C0 155.44 0 78.88 0 0 Z M24 21 C24 83.7 24 146.4 24 211 C88.89660044 214.85260458 88.89660044 214.85260458 141.375 187.125 C146.48052709 181.93062391 150.49281934 176.40128089 154 170 C154.79857422 168.56527344 154.79857422 168.56527344 155.61328125 167.1015625 C159.3838202 159.97215634 161.99988625 152.80488832 164 145 C164.30035156 143.86820313 164.60070313 142.73640625 164.91015625 141.5703125 C168.98161544 123.65589208 168.69317842 103.7568742 164 86 C163.73316406 84.91460938 163.46632813 83.82921875 163.19140625 82.7109375 C159.57026944 69.48171769 153.28659322 57.12114366 144 47 C143.33613281 46.24460937 142.67226562 45.48921875 141.98828125 44.7109375 C128.2694047 29.9523679 111.45069358 24.24178226 92 21 C69.56 21 47.12 21 24 21 Z " fill="#414141" transform="translate(2678,2526)"/>
<path d="M0 0 C21.45 0 42.9 0 65 0 C65 76.56 65 153.12 65 232 C43.55 232 22.1 232 0 232 C0 155.44 0 78.88 0 0 Z " fill="#414141" transform="translate(1628,2526)"/>
<path d="M0 0 C21.12 0 42.24 0 64 0 C64 76.56 64 153.12 64 232 C42.88 232 21.76 232 0 232 C0 155.44 0 78.88 0 0 Z " fill="#414141" transform="translate(1246,2526)"/>
<path d="M0 0 C1.04325439 0.00491455 2.08650879 0.0098291 3.16137695 0.01489258 C30.75517445 0.42819548 54.20405317 11.5757497 74 30.5 C90.16405156 47.25140808 100.10610438 67.03800865 106.375 89.3125 C106.56852051 89.99602539 106.76204102 90.67955078 106.96142578 91.38378906 C114.92411187 121.05943482 108.13573258 154.05605115 93.44140625 180.46923828 C87.64580345 190.48682096 80.46476124 199.10429423 72.375 207.3125 C71.66988281 208.03050781 70.96476562 208.74851562 70.23828125 209.48828125 C50.71282824 228.04675945 23.94874465 236.80106798 -2.625 236.3125 C-33.44070713 234.94208622 -58.34985196 222.63103596 -79.16308594 199.99023438 C-83.13530683 195.43160011 -86.41986181 190.4319054 -89.625 185.3125 C-90.25019531 184.33667969 -90.87539062 183.36085938 -91.51953125 182.35546875 C-107.50525177 156.33949222 -113.40940115 122.36978708 -106.7265625 92.51953125 C-98.34117326 59.2104564 -80.12686812 31.17715041 -50.21875 13.2734375 C-34.67508681 4.40496709 -17.92192455 -0.10105523 0 0 Z M-51.625 41.3125 C-52.43195312 41.91964844 -53.23890625 42.52679687 -54.0703125 43.15234375 C-71.26607026 57.69248754 -82.54805323 83.1819493 -84.625 105.3125 C-86.52416338 134.47932615 -80.90334806 161.96134934 -61.78125 184.87109375 C-54.791235 192.78551291 -47.86078856 199.12771939 -38.625 204.3125 C-37.70074219 204.84746094 -36.77648438 205.38242188 -35.82421875 205.93359375 C-18.41203496 215.38188292 3.46034225 217.68589425 22.6015625 212.28515625 C46.53180755 203.8927182 64.78897106 186.46241924 76.06640625 163.93359375 C87.74109249 138.21417219 89.28278609 107.7874123 79.6875 81.1875 C75.14525541 69.39833674 68.80300684 58.75498915 60.375 49.3125 C59.63765625 48.48105469 58.9003125 47.64960938 58.140625 46.79296875 C48.731611 36.78436072 37.34157074 29.78675648 24.375 25.3125 C23.51519531 24.99410156 22.65539063 24.67570312 21.76953125 24.34765625 C-3.8239017 16.33355098 -31.92703411 24.22213604 -51.625 41.3125 Z " fill="#414141" transform="translate(2526.625,2523.6875)"/>
<path d="M0 0 C0.98355469 0.42925781 1.96710937 0.85851563 2.98046875 1.30078125 C10.69540106 5.07475247 16.54448082 10.68932491 22.609375 16.64892578 C23.73344708 17.74102811 24.8929689 18.79656885 26.0625 19.83984375 C32.26981682 25.4867778 38.34512714 34.03538142 41 42 C38.58889225 43.82032638 36.17166865 45.63132015 33.75 47.4375 C33.06808594 47.95376953 32.38617187 48.47003906 31.68359375 49.00195312 C31.01972656 49.49501953 30.35585937 49.98808594 29.671875 50.49609375 C29.0644043 50.95169678 28.45693359 51.4072998 27.83105469 51.87670898 C25.89121796 53.06673416 24.22303086 53.56869768 22 54 C21.63390625 53.35675781 21.2678125 52.71351563 20.890625 52.05078125 C9.92559475 33.74962362 -5.17283898 21.06493357 -26.0625 15.75 C-32.01933848 14.31504463 -37.87340655 13.25395206 -44 13 C-44.73605469 12.9484375 -45.47210937 12.896875 -46.23046875 12.84375 C-66.91818764 12.01208291 -85.45705254 20.20606912 -100.94140625 33.53125 C-120.69515791 52.21351861 -130.48163594 79.28431573 -131.28540039 106.11816406 C-131.59777419 130.69156946 -124.17895681 155.22664478 -108 174 C-107.43152344 174.72316406 -106.86304687 175.44632813 -106.27734375 176.19140625 C-94.21113257 190.92191884 -74.7972826 201.53657304 -56 204 C-43.12653991 205.14928136 -31.25980228 204.01229893 -19 200 C-17.63875 199.566875 -17.63875 199.566875 -16.25 199.125 C-5.94007829 195.42400246 3.02588096 189.09737745 11.3125 182.0625 C11.86260742 181.59714844 12.41271484 181.13179687 12.97949219 180.65234375 C14.08936113 179.6811255 15.17614434 178.68301359 16.24072266 177.66235352 C18 176 18 176 20.16162109 174.30444336 C24.89199668 170.0767952 26.45389939 166.47107869 26.9054718 160.28393555 C27.06935952 155.99232604 27.04660561 151.73522876 27 147.4375 C27 141.353125 27 135.26875 27 129 C10.17 129 -6.66 129 -24 129 C-24 122.73 -24 116.46 -24 110 C-0.57 110 22.86 110 47 110 C47 147.95 47 185.9 47 225 C40.4 225 33.8 225 27 225 C26.67 214.77 26.34 204.54 26 194 C23.36 196.64 20.72 199.28 18 202 C-3.38774824 220.76884029 -29.32664445 228.38714802 -57.4765625 226.55859375 C-72.15634112 225.28354133 -85.3270153 220.34453097 -98 213 C-99.56814453 212.09121094 -99.56814453 212.09121094 -101.16796875 211.1640625 C-126.55847776 195.26564602 -145.10463758 167.99605767 -152.28125 139.0625 C-154.26059148 130.45058365 -155.6936198 121.84506323 -156 113 C-156.03996094 112.2471875 -156.07992187 111.494375 -156.12109375 110.71875 C-157.09959645 77.10430427 -143.83149965 45.69063169 -121.16015625 21.23046875 C-90.03707715 -10.90565813 -40.36236919 -17.86531095 0 0 Z " fill="#414141" transform="translate(3385,2533)"/>
<path d="M0 0 C3.5757068 3.09022122 6.98832304 6.33383879 10.35742188 9.6484375 C11.23398438 10.50566406 12.11054688 11.36289063 13.01367188 12.24609375 C18.37517125 17.74163061 23.51040304 24.4671512 26.35742188 31.6484375 C25.1934125 35.14046561 24.61473801 35.37574607 21.54101562 37.12890625 C20.39536133 37.79116211 20.39536133 37.79116211 19.2265625 38.46679688 C18.42412109 38.91861328 17.62167969 39.37042969 16.79492188 39.8359375 C15.58545898 40.53106445 15.58545898 40.53106445 14.3515625 41.24023438 C12.35799742 42.38446996 10.35999757 43.52006981 8.35742188 44.6484375 C5.87847668 42.26144766 4.29080278 39.97305446 2.60742188 36.9609375 C-6.79988239 21.11342493 -22.84095455 10.77002863 -40.58007812 6.2109375 C-62.27751674 1.24641861 -85.23402871 4.36618877 -104.26757812 15.8984375 C-125.0568285 29.79770676 -136.3162602 49.98903714 -142.64257812 73.6484375 C-142.8771875 74.504375 -143.11179687 75.3603125 -143.35351562 76.2421875 C-149.55276713 102.47670112 -143.819584 130.54992131 -130.64257812 153.6484375 C-128.38834616 157.1022003 -125.91009297 160.30871428 -123.29492188 163.49609375 C-121.64257812 165.6484375 -121.64257812 165.6484375 -121.64257812 167.6484375 C-120.98257813 167.6484375 -120.32257812 167.6484375 -119.64257812 167.6484375 C-118.42931106 169.09180694 -117.22011305 170.53894149 -116.0390625 172.00878906 C-105.14120709 184.80424307 -85.1819241 193.94945686 -68.64257812 195.6484375 C-56.2147912 196.22124276 -44.3246931 195.01448047 -32.64257812 190.6484375 C-31.62164063 190.2875 -30.60070313 189.9265625 -29.54882812 189.5546875 C-21.85404003 186.61956214 -15.27585948 182.49546405 -8.64257812 177.6484375 C-7.97355469 177.16632812 -7.30453125 176.68421875 -6.61523438 176.1875 C0.79683294 170.37213653 5.97060103 161.87372658 10.35742188 153.6484375 C15.22614242 154.24402856 18.95071029 156.37321165 23.16992188 158.7109375 C24.20922852 159.27651367 24.20922852 159.27651367 25.26953125 159.85351562 C26.96871172 160.77927602 28.66351613 161.71306062 30.35742188 162.6484375 C28.36716709 176.02197879 16.80869559 187.69588946 6.40478516 195.63745117 C-17.78555247 213.22021135 -47.71238921 221.17847298 -77.38134766 216.82397461 C-96.4774208 213.57873338 -113.21231269 205.44684739 -127.64257812 192.6484375 C-128.34769531 192.07480469 -129.0528125 191.50117188 -129.77929688 190.91015625 C-152.49056471 172.21463322 -166.18956861 141.41492718 -169.64257812 112.6484375 C-169.92779331 107.91522359 -169.97675649 103.20190199 -169.95507812 98.4609375 C-169.95016357 97.18589355 -169.94524902 95.91084961 -169.94018555 94.59716797 C-169.5603872 63.93672944 -157.6885029 36.65610251 -137.64257812 13.6484375 C-136.83240234 12.71064453 -136.83240234 12.71064453 -136.00585938 11.75390625 C-123.41884157 -1.78427159 -105.33892123 -10.83792033 -87.64257812 -15.3515625 C-86.82144531 -15.56425781 -86.0003125 -15.77695313 -85.15429688 -15.99609375 C-57.07370548 -22.73737562 -22.78443449 -18.74771542 0 0 Z " fill="#414141" transform="translate(2366.642578125,2542.3515625)"/>
<path d="M0 0 C7.92 0 15.84 0 24 0 C24.02258497 29.41101118 24.04049803 58.82202104 24.05106533 88.23303911 C24.0523161 91.70166476 24.05361042 95.17029039 24.05493164 98.63891602 C24.05519395 99.32948572 24.05545626 100.02005542 24.05572652 100.73155148 C24.06008327 111.92766918 24.06797084 123.12378178 24.0771528 134.31989645 C24.0864892 145.79969734 24.09198068 157.27949407 24.09408849 168.75929886 C24.09539604 175.21087493 24.09848463 181.6624394 24.10573006 188.11401176 C24.11248625 194.17873182 24.11461778 200.24343541 24.11310768 206.30815887 C24.11338419 208.54113161 24.11539168 210.77410486 24.11920547 213.00707436 C24.12413646 216.04143427 24.1230005 219.07573097 24.12025452 222.11009216 C24.12316736 223.00598838 24.1260802 223.90188459 24.12908131 224.82492918 C24.11412121 230.88587879 24.11412121 230.88587879 23 232 C15.41 232 7.82 232 0 232 C0 155.44 0 78.88 0 0 Z " fill="#424242" transform="translate(2912,2526)"/>
<path d="M0 0 C-1.74926429 11.69820492 -9.78236947 22.04800354 -17 31 C-17.70769531 31.93714844 -18.41539062 32.87429688 -19.14453125 33.83984375 C-20.06298828 34.90912109 -20.06298828 34.90912109 -21 36 C-21.66 36 -22.32 36 -23 36 C-23.20238281 36.55171875 -23.40476562 37.1034375 -23.61328125 37.671875 C-31.76318002 51.35452196 -53.24397178 59.6942629 -67.89501953 63.49609375 C-76.82927596 65.63484407 -85.40327373 66.31804212 -94.58007812 66.26074219 C-96.62920454 66.24997791 -98.67746175 66.26072232 -100.7265625 66.2734375 C-107.75940854 66.2798165 -114.20333159 65.89046406 -121 64 C-119.19476441 60.13267166 -116.71495349 57.27469927 -113.8125 54.1875 C-113.31347168 53.6527002 -112.81444336 53.11790039 -112.30029297 52.56689453 C-111.3099662 51.50919859 -110.31719672 50.4537835 -109.32177734 49.40087891 C-108.26394357 48.27973924 -107.21785982 47.14751745 -106.17578125 46.01171875 C-93.01938328 32.12625087 -75.29618499 21.80008156 -58 14 C-57.34628418 13.69852051 -56.69256836 13.39704102 -56.01904297 13.08642578 C-41.56715249 6.59210971 -25.98364317 4.12028104 -10.5 1.28515625 C-9.43244476 1.08885117 -9.43244476 1.08885117 -8.34332275 0.88858032 C-5.51417434 0.38334749 -2.88091616 0 0 0 Z " fill="#F98234" transform="translate(2230,1599)"/>
<path d="M0 0 C41.94860147 5.02853898 77.38080888 18.34588368 108 48 C108.85851563 48.83015625 109.71703125 49.6603125 110.6015625 50.515625 C118.21707221 58.00710361 118.21707221 58.00710361 121 62 C121 62.66 121 63.32 121 64 C113.1077198 66.15556293 105.59328111 66.34808812 97.4375 66.3125 C96.43647247 66.30926727 96.43647247 66.30926727 95.41522217 66.30596924 C66.76047804 66.15727639 43.35285867 57.1054075 23 37 C22.35804687 36.43023438 21.71609375 35.86046875 21.0546875 35.2734375 C11.92101817 26.98941183 4.56625055 14.35994039 0 3 C0 2.01 0 1.02 0 0 Z " fill="#F98536" transform="translate(1814,1599)"/>
<path d="M0 0 C6.6 0 13.2 0 20 0 C20 10.89 20 21.78 20 33 C13.4 33 6.8 33 0 33 C0 22.11 0 11.22 0 0 Z " fill="#414141" transform="translate(3471,2725)"/>
</svg>
